Coordinates
version=1
nRows=14
nColumns=40
inDegrees=yes

Units are S.I. units (second, meters, Newtons, ...)
If the header above contains a line with 'inDegrees', this indicates whether rotational values are in degrees (yes) or radians (no).

endheader
time	pelvis_tilt	pelvis_list	pelvis_rotation	pelvis_tx	pelvis_ty	pelvis_tz	hip_flexion_r	hip_adduction_r	hip_rotation_r	knee_angle_r	knee_angle_r_beta	ankle_angle_r	subtalar_angle_r	mtp_angle_r	hip_flexion_l	hip_adduction_l	hip_rotation_l	knee_angle_l	knee_angle_l_beta	ankle_angle_l	subtalar_angle_l	mtp_angle_l	lumbar_extension	lumbar_bending	lumbar_rotation	arm_flex_r	arm_add_r	arm_rot_r	elbow_flex_r	pro_sup_r	wrist_flex_r	wrist_dev_r	arm_flex_l	arm_add_l	arm_rot_l	elbow_flex_l	pro_sup_l	wrist_flex_l	wrist_dev_l
      5.24500000	    -41.21674888	     -6.11158909	     16.45484785	      0.03500556	      0.67096081	     -1.21859766	     88.79384148	    -48.20545267	     -9.46646347	     67.89666773	      1.18502040	      2.20494577	    -17.38577739	      0.00000000	     97.52844998	    -14.42015400	     -3.13818908	     62.02382920	      1.08252003	     -2.71663574	     -0.80480164	      0.00000000	      0.00000000	      0.00000000	      0.00000000	     44.99992434	    -14.99999999	     44.99992434	     75.00017585	     45.00000026	      0.00000000	      0.00000000	     44.99992434	    -14.99999999	     44.99992434	     75.00017585	     45.00000026	      0.00000000	      0.00000000
      5.25000000	    -41.14671311	     -6.17789905	     16.48292659	      0.03547359	      0.67138948	     -1.21867482	     88.51778436	    -48.22640791	     -9.69234657	     67.84329337	      1.18408884	      2.26294352	    -17.32760483	      0.00000000	     97.44801970	    -14.41588713	     -3.07639840	     61.99577085	      1.08203032	     -2.69032661	     -0.73658306	      0.00000000	      0.00000000	      0.00000000	      0.00000000	     44.99992434	    -14.99999999	     44.99992434	     75.00017585	     45.00000026	      0.00000000	      0.00000000	     44.99992434	    -14.99999999	     44.99992434	     75.00017585	     45.00000026	      0.00000000	      0.00000000
      5.25500000	    -41.23539549	     -6.04202466	     16.45410651	      0.03572113	      0.67144202	     -1.21849906	     88.74741599	    -48.19805350	     -9.42832026	     67.84152742	      1.18405802	      2.22287664	    -17.34481389	      0.00000000	     97.39899027	    -14.46506463	     -3.25191267	     61.96569838	      1.08150546	     -2.64409249	     -0.67650650	      0.00000000	      0.00000000	      0.00000000	      0.00000000	     44.99992434	    -14.99999999	     44.99992434	     75.00017585	     45.00000026	      0.00000000	      0.00000000	     44.99992434	    -14.99999999	     44.99992434	     75.00017585	     45.00000026	      0.00000000	      0.00000000
      5.26000000	    -40.74326421	     -6.01676643	     16.50435431	      0.03659749	      0.67322836	     -1.21854162	     87.79187751	    -48.17564444	     -9.88183043	     67.59121437	      1.17968924	      1.98760087	    -17.55881234	      0.00000000	     96.76399668	    -14.50138976	     -3.22350870	     61.83253563	      1.07918133	     -2.50591396	     -0.49434829	      0.00000000	      0.00000000	      0.00000000	      0.00000000	     44.99992434	    -14.99999999	     44.99992434	     75.00017585	     45.00000026	      0.00000000	      0.00000000	     44.99992434	    -14.99999999	     44.99992434	     75.00017585	     45.00000026	      0.00000000	      0.00000000
      5.26500000	    -40.82976524	     -6.25986389	     16.53918389	      0.03686061	      0.67312062	     -1.21870558	     87.62778088	    -48.22074615	    -10.28815368	     67.61344665	      1.18007726	      2.12123436	    -17.45991063	      0.00000000	     96.98828302	    -14.46363682	     -3.01219333	     61.82863712	      1.07911329	     -2.59930193	     -0.55150786	      0.00000000	      0.00000000	      0.00000000	      0.00000000	     44.99992434	    -14.99999999	     44.99992434	     75.00017585	     45.00000026	      0.00000000	      0.00000000	     44.99992434	    -14.99999999	     44.99992434	     75.00017585	     45.00000026	      0.00000000	      0.00000000
      5.27000000	    -41.13657358	     -6.13711294	     16.47269819	      0.03681272	      0.67244832	     -1.21846743	     88.25837999	    -48.19418533	     -9.84520740	     67.71182721	      1.18179433	      2.25284592	    -17.30897228	      0.00000000	     97.21849111	    -14.51622351	     -3.19630076	     61.87281865	      1.07988440	     -2.61785103	     -0.54601671	      0.00000000	      0.00000000	      0.00000000	      0.00000000	     44.99992434	    -14.99999999	     44.99992434	     75.00017585	     45.00000026	      0.00000000	      0.00000000	     44.99992434	    -14.99999999	     44.99992434	     75.00017585	     45.00000026	      0.00000000	      0.00000000
      5.27500000	    -40.76538751	     -6.12213859	     16.51226505	      0.03755429	      0.67383430	     -1.21846777	     87.52261285	    -48.16731557	    -10.19114533	     67.53466087	      1.17870219	      2.11353089	    -17.46411503	      0.00000000	     96.73020440	    -14.57077535	     -3.22040185	     61.74888985	      1.07772144	     -2.56127418	     -0.43542889	      0.00000000	      0.00000000	      0.00000000	      0.00000000	     44.99992434	    -14.99999999	     44.99992434	     75.00017585	     45.00000026	      0.00000000	      0.00000000	     44.99992434	    -14.99999999	     44.99992434	     75.00017585	     45.00000026	      0.00000000	      0.00000000
      5.28000000	    -40.64296221	     -6.17178477	     16.54617696	      0.03797817	      0.67445121	     -1.21857441	     87.17207166	    -48.18196227	    -10.43450767	     67.43282243	      1.17692478	      2.03055382	    -17.48830102	      0.00000000	     96.58122633	    -14.56743215	     -3.17985762	     61.70630024	      1.07697811	     -2.52072989	     -0.37262178	      0.00000000	      0.00000000	      0.00000000	      0.00000000	     44.99992434	    -14.99999999	     44.99992434	     75.00017585	     45.00000026	      0.00000000	      0.00000000	     44.99992434	    -14.99999999	     44.99992434	     75.00017585	     45.00000026	      0.00000000	      0.00000000
      5.28500000	    -40.87239168	     -6.14816174	     16.53750320	      0.03802462	      0.67393956	     -1.21847653	     87.56351096	    -48.21742953	    -10.23053049	     67.54391753	      1.17886375	      2.32398483	    -17.20380142	      0.00000000	     96.78650652	    -14.56585568	     -3.24069825	     61.72001442	      1.07721747	     -2.55731894	     -0.31505436	      0.00000000	      0.00000000	      0.00000000	      0.00000000	     44.99992434	    -14.99999999	     44.99992434	     75.00017585	     45.00000026	      0.00000000	      0.00000000	     44.99992434	    -14.99999999	     44.99992434	     75.00017585	     45.00000026	      0.00000000	      0.00000000
      5.29000000	    -40.88371763	     -6.05543077	     16.51669351	      0.03829223	      0.67417563	     -1.21832277	     87.62120009	    -48.19231188	    -10.10686567	     67.52383925	      1.17851332	      2.30134480	    -17.21420820	      0.00000000	     96.68946042	    -14.61781397	     -3.36611553	     61.67939009	      1.07650844	     -2.53201048	     -0.25331821	      0.00000000	      0.00000000	      0.00000000	      0.00000000	     44.99992434	    -14.99999999	     44.99992434	     75.00017585	     45.00000026	      0.00000000	      0.00000000	     44.99992434	    -14.99999999	     44.99992434	     75.00017585	     45.00000026	      0.00000000	      0.00000000
      5.29500000	    -40.84812245	     -6.02293566	     16.51396974	      0.03862076	      0.67454659	     -1.21825676	     87.51849702	    -48.17840787	    -10.13281251	     67.47522451	      1.17766483	      2.30207806	    -17.20856330	      0.00000000	     96.58083149	    -14.64888012	     -3.41918674	     61.63309080	      1.07570036	     -2.53249715	     -0.21233274	      0.00000000	      0.00000000	      0.00000000	      0.00000000	     44.99992434	    -14.99999999	     44.99992434	     75.00017585	     45.00000026	      0.00000000	      0.00000000	     44.99992434	    -14.99999999	     44.99992434	     75.00017585	     45.00000026	      0.00000000	      0.00000000
      5.30000000	    -40.81181929	     -6.05584746	     16.51629482	      0.03891227	      0.67487652	     -1.21826195	     87.34650289	    -48.16457072	    -10.26616719	     67.41932431	      1.17668919	      2.32688544	    -17.17569186	      0.00000000	     96.52966392	    -14.66633330	     -3.41087180	     61.60221186	      1.07516142	     -2.57143658	     -0.20711786	      0.00000000	      0.00000000	      0.00000000	      0.00000000	     44.99992434	    -14.99999999	     44.99992434	     75.00017585	     45.00000026	      0.00000000	      0.00000000	     44.99992434	    -14.99999999	     44.99992434	     75.00017585	     45.00000026	      0.00000000	      0.00000000
      5.30500000	    -40.56666536	     -6.01617421	     16.54030738	      0.03949299	      0.67588956	     -1.21822528	     86.87395820	    -48.15288239	    -10.48092503	     67.28699853	      1.17437967	      2.16113359	    -17.33864717	      0.00000000	     96.16645973	    -14.70398807	     -3.44354698	     61.50412563	      1.07344950	     -2.49199663	     -0.11639195	      0.00000000	      0.00000000	      0.00000000	      0.00000000	     44.99992434	    -14.99999999	     44.99992434	     75.00017585	     45.00000026	      0.00000000	      0.00000000	     44.99992434	    -14.99999999	     44.99992434	     75.00017585	     45.00000026	      0.00000000	      0.00000000
      5.31000000	    -40.92096701	     -5.69372178	     16.42864410	      0.03937744	      0.67519375	     -1.21773580	     87.78926958	    -48.07622482	     -9.64371432	     67.39969260	      1.17634655	      2.26084689	    -17.25001771	      0.00000000	     96.28950380	    -14.80342999	     -3.83983673	     61.49915891	      1.07336281	     -2.47713847	     -0.14166826	      0.00000000	      0.00000000	      0.00000000	      0.00000000	     44.99992434	    -14.99999999	     44.99992434	     75.00017585	     45.00000026	      0.00000000	      0.00000000	     44.99992434	    -14.99999999	     44.99992434	     75.00017585	     45.00000026	      0.00000000	      0.00000000
